<?xml version="1.0" encoding="UTF-8" standalone="no"?>
<!DOCTYPE svg PUBLIC "-//W3C//DTD SVG 1.1//EN"
 "http://www.w3.org/Graphics/SVG/1.1/DTD/svg11.dtd">
<!-- Generated by graphviz version 2.43.0 (0)
 -->
<!-- Title: ObjectGraph Pages: 1 -->
<svg width="493pt" height="490pt"
 viewBox="0.00 0.00 492.50 490.00" xmlns="http://www.w3.org/2000/svg" xmlns:xlink="http://www.w3.org/1999/xlink">
<g id="graph0" class="graph" transform="scale(1 1) rotate(0) translate(4 486)">
<title>ObjectGraph</title>
<polygon fill="white" stroke="transparent" points="-4,4 -4,-486 488.5,-486 488.5,4 -4,4"/>
<!-- o140040271113920 -->
<g id="node1" class="node">
<title>o140040271113920</title>
<polygon fill="#ffffff" stroke="black" points="455,-482 185,-482 185,-444 455,-444 455,-482"/>
<text text-anchor="middle" x="320" y="-466.8" font-family="Times,serif" font-size="14.00" fill="red">OOBTree</text>
<text text-anchor="middle" x="320" y="-451.8" font-family="Times,serif" font-size="14.00" fill="red">&lt;BTrees.OOBTree.OOBTree object at 0x7f5d</text>
</g>
<!-- o140040271113664 -->
<g id="node2" class="node">
<title>o140040271113664</title>
<polygon fill="#c3c3c3" stroke="black" points="254,-408 0,-408 0,-370 254,-370 254,-408"/>
<text text-anchor="middle" x="127" y="-392.8" font-family="Times,serif" font-size="14.00">OOBucket</text>
<text text-anchor="middle" x="127" y="-377.8" font-family="Times,serif" font-size="14.00">BTrees.OOBTree.OOBucket([(&#39;0&#39;, None), (&#39;</text>
</g>
<!-- o140040271113920&#45;&gt;o140040271113664 -->
<g id="edge1" class="edge">
<title>o140040271113920&#45;&gt;o140040271113664</title>
<path fill="none" stroke="black" d="M265.6,-443.92C238.49,-434.17 205.91,-422.05 179.12,-411.78"/>
<polygon fill="black" stroke="black" points="180.12,-408.41 169.53,-408.08 177.6,-414.94 180.12,-408.41"/>
</g>
<!-- o140040271113920&#45;&gt;o140040271113664 -->
<g id="edge7" class="edge">
<title>o140040271113920&#45;&gt;o140040271113664</title>
<path fill="none" stroke="black" d="M277.25,-443.83C251.82,-433.99 219.15,-421.76 190.75,-411.45"/>
<polygon fill="black" stroke="black" points="191.89,-408.15 181.29,-408.04 189.51,-414.73 191.89,-408.15"/>
</g>
<!-- o140040271114048 -->
<g id="node3" class="node">
<title>o140040271114048</title>
<polygon fill="#c3c3c3" stroke="black" points="291.5,-334 32.5,-334 32.5,-296 291.5,-296 291.5,-334"/>
<text text-anchor="middle" x="162" y="-318.8" font-family="Times,serif" font-size="14.00">OOBucket</text>
<text text-anchor="middle" x="162" y="-303.8" font-family="Times,serif" font-size="14.00">BTrees.OOBTree.OOBucket([(&#39;22&#39;, None), (</text>
</g>
<!-- o140040271113920&#45;&gt;o140040271114048 -->
<g id="edge2" class="edge">
<title>o140040271113920&#45;&gt;o140040271114048</title>
<path fill="none" stroke="black" d="M312.25,-443.8C302.96,-423.69 285.75,-391.34 263,-370 249.67,-357.49 232.88,-347 216.84,-338.69"/>
<polygon fill="black" stroke="black" points="218.03,-335.37 207.52,-334.05 214.91,-341.64 218.03,-335.37"/>
</g>
<!-- o140040271114176 -->
<g id="node4" class="node">
<title>o140040271114176</title>
<polygon fill="#c3c3c3" stroke="black" points="329.5,-260 70.5,-260 70.5,-222 329.5,-222 329.5,-260"/>
<text text-anchor="middle" x="200" y="-244.8" font-family="Times,serif" font-size="14.00">OOBucket</text>
<text text-anchor="middle" x="200" y="-229.8" font-family="Times,serif" font-size="14.00">BTrees.OOBTree.OOBucket([(&#39;36&#39;, None), (</text>
</g>
<!-- o140040271113920&#45;&gt;o140040271114176 -->
<g id="edge3" class="edge">
<title>o140040271113920&#45;&gt;o140040271114176</title>
<path fill="none" stroke="black" d="M322.85,-443.94C327,-411.31 331.12,-341.71 300,-296 291.07,-282.89 277.89,-272.69 264.01,-264.86"/>
<polygon fill="black" stroke="black" points="265.3,-261.59 254.82,-260.05 262.06,-267.79 265.3,-261.59"/>
</g>
<!-- o140040271114304 -->
<g id="node5" class="node">
<title>o140040271114304</title>
<polygon fill="#c3c3c3" stroke="black" points="368,-186 114,-186 114,-148 368,-148 368,-186"/>
<text text-anchor="middle" x="241" y="-170.8" font-family="Times,serif" font-size="14.00">OOBucket</text>
<text text-anchor="middle" x="241" y="-155.8" font-family="Times,serif" font-size="14.00">BTrees.OOBTree.OOBucket([(&#39;5&#39;, None), (&#39;</text>
</g>
<!-- o140040271113920&#45;&gt;o140040271114304 -->
<g id="edge4" class="edge">
<title>o140040271113920&#45;&gt;o140040271114304</title>
<path fill="none" stroke="black" d="M328.04,-443.86C345.47,-401.56 381.84,-294.51 339,-222 331.22,-208.83 318.95,-198.65 305.69,-190.87"/>
<polygon fill="black" stroke="black" points="307.34,-187.78 296.88,-186.1 304,-193.94 307.34,-187.78"/>
</g>
<!-- o140040271114432 -->
<g id="node6" class="node">
<title>o140040271114432</title>
<polygon fill="#c3c3c3" stroke="black" points="405.5,-112 146.5,-112 146.5,-74 405.5,-74 405.5,-112"/>
<text text-anchor="middle" x="276" y="-96.8" font-family="Times,serif" font-size="14.00">OOBucket</text>
<text text-anchor="middle" x="276" y="-81.8" font-family="Times,serif" font-size="14.00">BTrees.OOBTree.OOBucket([(&#39;63&#39;, None), (</text>
</g>
<!-- o140040271113920&#45;&gt;o140040271114432 -->
<g id="edge5" class="edge">
<title>o140040271113920&#45;&gt;o140040271114432</title>
<path fill="none" stroke="black" d="M336.87,-443.76C359.26,-417.58 396,-366.86 396,-316 396,-316 396,-316 396,-240 396,-198.25 401.99,-181.45 377,-148 367.19,-134.88 353.24,-124.61 338.82,-116.71"/>
<polygon fill="black" stroke="black" points="340.31,-113.54 329.81,-112.1 337.12,-119.77 340.31,-113.54"/>
</g>
<!-- o140040271114560 -->
<g id="node7" class="node">
<title>o140040271114560</title>
<polygon fill="#c3c3c3" stroke="black" points="484.5,-38 225.5,-38 225.5,0 484.5,0 484.5,-38"/>
<text text-anchor="middle" x="355" y="-22.8" font-family="Times,serif" font-size="14.00">OOBucket</text>
<text text-anchor="middle" x="355" y="-7.8" font-family="Times,serif" font-size="14.00">BTrees.OOBTree.OOBucket([(&#39;77&#39;, None), (</text>
</g>
<!-- o140040271113920&#45;&gt;o140040271114560 -->
<g id="edge6" class="edge">
<title>o140040271113920&#45;&gt;o140040271114560</title>
<path fill="none" stroke="black" d="M347.6,-443.88C381.33,-419.3 434,-371.96 434,-316 434,-316 434,-316 434,-166 434,-124.25 435.78,-110.22 415,-74 408.68,-62.98 399.32,-53 389.85,-44.7"/>
<polygon fill="black" stroke="black" points="391.88,-41.83 381.95,-38.13 387.41,-47.21 391.88,-41.83"/>
</g>
<!-- o140040271113664&#45;&gt;o140040271114048 -->
<g id="edge8" class="edge">
<title>o140040271113664&#45;&gt;o140040271114048</title>
<path fill="none" stroke="black" d="M135.83,-369.83C139.7,-361.88 144.32,-352.37 148.6,-343.57"/>
<polygon fill="black" stroke="black" points="151.82,-344.94 153.05,-334.41 145.53,-341.88 151.82,-344.94"/>
</g>
<!-- o140040271114048&#45;&gt;o140040271114176 -->
<g id="edge9" class="edge">
<title>o140040271114048&#45;&gt;o140040271114176</title>
<path fill="none" stroke="black" d="M171.59,-295.83C175.83,-287.79 180.91,-278.17 185.6,-269.29"/>
<polygon fill="black" stroke="black" points="188.71,-270.89 190.28,-260.41 182.52,-267.62 188.71,-270.89"/>
</g>
<!-- o140040271114176&#45;&gt;o140040271114304 -->
<g id="edge10" class="edge">
<title>o140040271114176&#45;&gt;o140040271114304</title>
<path fill="none" stroke="black" d="M210.35,-221.83C214.92,-213.79 220.41,-204.17 225.46,-195.29"/>
<polygon fill="black" stroke="black" points="228.61,-196.84 230.51,-186.41 222.52,-193.37 228.61,-196.84"/>
</g>
<!-- o140040271114304&#45;&gt;o140040271114432 -->
<g id="edge11" class="edge">
<title>o140040271114304&#45;&gt;o140040271114432</title>
<path fill="none" stroke="black" d="M249.83,-147.83C253.7,-139.88 258.32,-130.37 262.6,-121.57"/>
<polygon fill="black" stroke="black" points="265.82,-122.94 267.05,-112.41 259.53,-119.88 265.82,-122.94"/>
</g>
<!-- o140040271114432&#45;&gt;o140040271114560 -->
<g id="edge12" class="edge">
<title>o140040271114432&#45;&gt;o140040271114560</title>
<path fill="none" stroke="black" d="M295.94,-73.83C305.48,-65.13 317.06,-54.58 327.43,-45.13"/>
<polygon fill="black" stroke="black" points="330.04,-47.49 335.07,-38.16 325.32,-42.31 330.04,-47.49"/>
</g>
</g>
</svg>
